<svg id="Layer_1" enable-background="new 0 0 512 512" height="512" viewBox="0 0 512 512" width="512" xmlns="http://www.w3.org/2000/svg"><g><path d="m88 32v480h-48v-480c0-6.62 2.69-12.62 7.03-16.97 15.085-15.05 40.97-4.336 40.97 16.97z" fill="#aa7569"/><path d="m52.002 11.222c7.17 4.152 11.998 11.901 11.998 20.778v480h24v-480c0-18.578-20.173-29.935-35.998-20.778z" fill="#9a6758"/><path d="m328 64v208h-240v-224h224c8.84 0 16 7.16 16 16z" fill="#e48c9b"/><path d="m312 48h-32c8.84 0 16 7.16 16 16v208h32v-208c0-8.84-7.16-16-16-16z" fill="#cc5b6f"/><path d="m328 272-86.25 62.73c-5.73-2.43-9.75-8.11-9.75-14.73v-48z" fill="#cc5b6f"/><path d="m470.28 317.06c4.93 8.422-1.227 18.94-10.87 18.94-231.323 0-213.409.545-217.66-1.27l86.25-62.73v-160h131.41c9.791 0 15.717 10.659 10.87 18.94l-49.58 85c-2.9 4.98-2.9 11.14 0 16.12z" fill="#e48c9b"/><path d="m420.7 232.06c-2.9-4.98-2.9-11.14 0-16.12l49.58-85c4.849-8.284-1.082-18.94-10.87-18.94h-26c9.791 0 15.717 10.659 10.87 18.94l-49.58 85c-2.9 4.98-2.9 11.14 0 16.12l49.58 85c4.93 8.422-1.227 18.94-10.87 18.94h26c9.735 0 15.748-10.607 10.87-18.94z" fill="#cc5b6f"/><path d="m478.91 315.969-51.297-87.938c-1.45-2.486-1.45-5.574 0-8.061l51.297-87.938c.984-1.688 1.279-3.585.975-5.372 1.24-12.291-8.468-22.66-20.479-22.66h-123.406v-40c0-13.233-10.767-24-24-24h-216v-8c0-17.645-14.355-32-32-32s-32 14.355-32 32v472c0 4.418 3.582 8 8 8s8-3.582 8-8v-472c0-8.822 7.178-16 16-16s16 7.178 16 16v472c0 4.418 3.582 8 8 8s8-3.582 8-8v-224h128v40c0 13.233 10.767 24 24 24h211.405c12.021 0 21.718-10.381 20.479-22.66.306-1.786.011-3.684-.974-5.371zm-382.91-259.969h216c4.411 0 8 3.589 8 8v200h-224zm144 224h62.621c-64.69 45.283-60.267 41.793-61.54 43.998-1.52-2.621-1.081-1.07-1.081-43.998zm219.406 48h-197.456l70.638-49.446c1.639-1.148 2.871-2.955 3.269-5.068.223-1.177.143 8.745.143-153.486h123.405c3.53 0 5.754 3.847 3.969 6.91l-49.581 84.997c-4.352 7.459-4.352 16.727 0 24.186 53.653 91.977 50.207 85.415 50.207 87.312 0 2.533-2.061 4.595-4.594 4.595z"/></g></svg>