<?xml version="1.0" encoding="utf-8"?>
<!-- Generator: Adobe Illustrator 16.0.0, SVG Export Plug-In . SVG Version: 6.00 Build 0)  -->
<!DOCTYPE svg PUBLIC "-//W3C//DTD SVG 1.1//EN" "http://www.w3.org/Graphics/SVG/1.1/DTD/svg11.dtd">
<svg version="1.1" id="Layer_4" xmlns="http://www.w3.org/2000/svg" xmlns:xlink="http://www.w3.org/1999/xlink" x="0px" y="0px"
	 width="600px" height="600px" viewBox="0 0 600 600" enable-background="new 0 0 600 600" xml:space="preserve">
<linearGradient id="SVGID_1_" gradientUnits="userSpaceOnUse" x1="300.001" y1="599.9956" x2="300.0009" y2="-0.0044">
	<stop  offset="0" style="stop-color:#31587A"/>
	<stop  offset="0.3801" style="stop-color:#366183"/>
	<stop  offset="0.9944" style="stop-color:#447A9C"/>
</linearGradient>
<path fill="url(#SVGID_1_)" d="M600.001,299.996c0,165.69-134.32,300-300,300c-165.689,0-300-134.31-300-300
	c0-165.68,134.311-300,300-300c71.04,0,136.311,24.69,187.7,65.96l-116.14,326.8c0,0-34.07-88.07-34.091-88.12
	c-3.06-7.64-7.409-13.77-12.97-18.24c-6.22-4.97-14.32-7.48-24.08-7.48c-17.63,0-31.13,9.05-38.02,25.5
	c-0.061,0.15-0.12,0.3-0.181,0.45l-33.949,89.12l-0.131,0.34l-14.779-41.68c-3-6.24-7.391-11.23-13.11-14.9
	c-6.82-4.36-14.58-6.57-23.06-6.57c-12.37,0-22.91,4.6-30.5,13.3c-7.15,8.23-10.78,17.99-10.78,29.04c0,2.94,0.31,5.83,0.94,8.65
	l47.97,133.31c3.31,9.4,9.62,16.86,18.229,21.56c6.601,3.63,13.41,5.47,20.24,5.47c1.5,0,3.01-0.09,4.5-0.27
	c6.05-0.48,13.271-2.27,20.03-7.07c5.46-3.86,10.63-9.68,14.67-18.33c0.22-0.46,0.41-0.93,0.57-1.41l35.42-101.49l33.729,89.55
	l4.63,12.29c0.141,0.35,0.28,0.7,0.45,1.05c9.05,19.42,23.811,24.56,34.76,25.41c1.53,0.18,3.09,0.27,4.61,0.27
	c7.1,0,14-1.87,20.5-5.56c8.31-4.7,14.45-12.06,17.72-21.25l0.061-0.16l135.899-380.17
	C581.921,182.635,600.001,239.206,600.001,299.996z"/>
<g>
</g>
<g>
</g>
<g>
</g>
<g>
</g>
<g>
</g>
<g>
</g>
<g>
</g>
<g>
</g>
<g>
</g>
<g>
</g>
<g>
</g>
<g>
</g>
<g>
</g>
<g>
</g>
<g>
</g>
</svg>
